<svg xmlns="http://www.w3.org/2000/svg" viewBox="0 0 789.83 1055.29"><defs><style>.cls-1{fill:#764aff;}</style></defs><g id="Layer_2" data-name="Layer 2"><g id="Layer_1-2" data-name="Layer 1"><polygon class="cls-1" points="711.41 498.04 711.41 578.33 631.71 578.33 631.71 78.43 553.29 0 235.87 0 157.46 78.43 157.46 578.33 78.42 578.33 78.42 491.24 0 491.24 0 569.62 78.42 648.04 236.39 648.04 236.39 721.65 78.62 721.65 78.62 791.37 239.95 791.37 314.61 716.7 314.61 578.59 235.87 578.33 235.87 69.71 553.29 69.71 553.29 578.33 357.2 578.33 356.8 985.58 356.49 985.58 356.49 985.73 276.2 985.58 276.2 1055.29 357.31 1055.29 435.21 977.38 435.21 648.04 476.35 648.04 476.35 835.93 553.47 913.05 712.96 913.05 712.96 843.34 554.77 843.34 552.89 648.04 713.41 648.04 789.83 573.56 789.83 498.04 711.41 498.04"/></g></g></svg>