<svg xmlns="http://www.w3.org/2000/svg" viewBox="0 0 793 1055.29"><defs><style>.cls-1{fill:#764aff;}</style></defs><g id="Layer_2" data-name="Layer 2"><g id="Layer_1-2" data-name="Layer 1"><polygon class="cls-1" points="715 578.19 715 577.77 631.86 577.77 631.86 78.43 553.44 0 236.02 0 157.61 78.43 157.61 577.77 76 577.77 0 652.52 0 728.04 78.42 728.04 78.42 647.77 236.55 648.04 236.55 803.65 162 803.65 162 873.37 240.1 873.37 314.76 798.7 314.76 578.59 236.02 578.33 236.02 69.71 553.44 69.71 553.44 578.33 357.35 578.33 357.35 977.38 435.25 1055.29 516.37 1055.29 516.37 985.58 436.08 985.73 436.08 985.58 435.77 985.58 435.37 648.04 476.5 648.04 476.5 835.93 553.62 913.05 630 913.05 630 843.34 554.92 843.34 553.04 648.04 714.58 647.77 714.58 809.57 793 809.57 793 656.2 715 578.19"/></g></g></svg>